<svg version="1.1" viewBox="0.0 0.0 100.0 100.0" fill="none" stroke="none" stroke-linecap="square" stroke-miterlimit="10" xmlns:xlink="http://www.w3.org/1999/xlink" xmlns="http://www.w3.org/2000/svg"><clipPath id="p.0"><path d="m0 0l100.0 0l0 100.0l-100.0 0l0 -100.0z" clip-rule="nonzero"/></clipPath><g clip-path="url(#p.0)"><path fill="#000000" fill-opacity="0.0" d="m0 0l100.0 0l0 100.0l-100.0 0z" fill-rule="evenodd"/><path fill="#000000" d="m8.635171 47.025414l0 0c0 -1.1103897 0.9001484 -2.01054 2.010538 -2.01054l78.719086 0c0.533226 0 1.0446167 0.21182251 1.4216614 0.5888748c0.3770523 0.3770485 0.5888748 0.88843536 0.5888748 1.4216652l0 8.041912c0 1.1103897 -0.9001465 2.01054 -2.0105362 2.01054l-78.719086 0c-1.1103897 0 -2.010538 -0.9001503 -2.010538 -2.01054z" fill-rule="evenodd"/><path fill="#000000" d="m8.635171 82.73933l0 0c0 -1.1103973 0.9001484 -2.0105438 2.010538 -2.0105438l78.719086 0c0.533226 0 1.0446167 0.21182251 1.4216614 0.5888748c0.3770523 0.3770523 0.5888748 0.88843536 0.5888748 1.421669l0 8.041908c0 1.1103897 -0.9001465 2.0105438 -2.0105362 2.0105438l-78.719086 0c-1.1103897 0 -2.010538 -0.9001541 -2.010538 -2.0105438z" fill-rule="evenodd"/><path fill="#000000" d="m8.635171 11.3115015l0 0c0 -1.1103897 0.9001484 -2.010539 2.010538 -2.010539l78.719086 0c0.533226 0 1.0446167 0.21182442 1.4216614 0.5888729c0.3770523 0.37704945 0.5888748 0.8884382 0.5888748 1.4216661l0 8.041915c0 1.1103897 -0.9001465 2.010538 -2.0105362 2.010538l-78.719086 0c-1.1103897 0 -2.010538 -0.9001484 -2.010538 -2.010538z" fill-rule="evenodd"/></g></svg>